<?xml version="1.0" standalone="no"?>
<!DOCTYPE svg PUBLIC "-//W3C//DTD SVG 20010904//EN"
 "http://www.w3.org/TR/2001/REC-SVG-20010904/DTD/svg10.dtd">
<svg version="1.0" xmlns="http://www.w3.org/2000/svg"
  width="2000px" height="2000px" viewBox="0 0 1120 1120" 
 preserveAspectRatio="xMidYMid meet">
 <g transform="translate(0.000000,1120.000000) scale(0.100000,-0.100000)"
 fill="#000000" stroke="none">

<g transform="translate(0.000000,1120.000000) scale(0.100000,-0.100000)"
fill="#000000" stroke="none">
<path d="M5028 8023 c7 -3 16 -2 19 1 4 3 -2 6 -13 5 -11 0 -14 -3 -6 -6z"/>
<path d="M5128 8003 c7 -3 16 -2 19 1 4 3 -2 6 -13 5 -11 0 -14 -3 -6 -6z"/>
<path d="M5162 7996 c3 -4 21 -10 40 -13 18 -2 34 -9 36 -13 2 -5 11 -6 20 -3
14 5 15 4 6 -8 -19 -25 -24 -47 -9 -45 8 1 18 6 22 11 4 4 3 5 -3 2 -6 -3 -11
0 -11 8 0 9 4 11 11 6 6 -5 13 -9 16 -10 3 0 13 -3 23 -6 9 -4 24 -2 32 5 8 6
19 9 25 5 5 -3 10 -2 10 3 0 5 -33 18 -72 30 -86 24 -156 38 -146 28z m183
-56 c-3 -5 -13 -10 -21 -10 -8 0 -12 5 -9 10 3 6 13 10 21 10 8 0 12 -4 9 -10z"/>
<path d="M5202 7957 c-8 -9 -8 -17 0 -27 8 -13 9 -12 5 1 -3 9 0 22 6 28 6 6
8 11 5 11 -3 0 -10 -6 -16 -13z"/>
<path d="M5390 7930 c0 -5 6 -7 13 -4 8 3 14 -2 14 -10 0 -15 -22 -17 -43 -3
-6 3 -20 -3 -30 -14 -17 -19 -17 -20 2 -13 15 5 14 2 -5 -14 -14 -11 -30 -18
-37 -15 -14 5 -27 -24 -13 -32 5 -4 8 -1 7 5 -4 15 29 22 38 9 3 -5 -2 -9 -11
-9 -12 0 -15 -8 -12 -35 4 -35 -7 -56 -16 -33 -3 7 -6 4 -6 -7 -1 -17 -3 -18
-12 -5 -10 13 -10 13 -6 0 2 -8 -2 -21 -9 -28 -8 -7 -14 -10 -14 -6 0 3 -6 1
-14 -5 -10 -8 -39 -5 -119 14 -387 91 -853 57 -1239 -91 -211 -81 -467 -229
-635 -365 -219 -180 -423 -430 -562 -691 -213 -400 -305 -928 -236 -1358 30
-187 112 -466 171 -582 14 -27 22 -53 19 -58 -4 -6 -1 -10 4 -10 6 0 22 -24
36 -52 14 -29 20 -45 12 -36 -12 15 -14 15 -25 0 -10 -15 -12 -15 -18 6 -3 12
-10 22 -15 22 -15 0 -21 -21 -9 -35 8 -9 8 -15 0 -20 -6 -4 -9 -1 -8 5 2 6 -7
19 -19 27 -15 10 -23 11 -23 4 0 -6 5 -11 10 -11 6 0 10 -5 10 -10 0 -6 -8 -5
-19 2 -11 7 -18 16 -15 20 3 4 -3 5 -12 1 -13 -5 -15 -3 -9 8 4 8 4 11 0 6 -5
-4 -10 -18 -12 -30 -2 -17 -1 -19 6 -7 6 8 13 11 18 7 9 -9 -17 -28 -29 -21
-4 3 -8 -1 -8 -9 0 -8 -7 -18 -16 -21 -15 -6 -15 -4 -3 11 13 17 13 17 -13 0
-16 -10 -29 -13 -33 -7 -3 6 -1 10 5 10 6 0 8 5 4 12 -5 8 -2 9 10 5 10 -4 15
-3 11 4 -4 5 -1 17 7 26 11 14 11 16 -1 8 -11 -6 -13 -4 -8 9 4 11 3 15 -4 11
-6 -4 -8 -13 -5 -21 7 -17 -10 -28 -18 -12 -3 7 -4 4 -3 -7 1 -12 -5 -21 -17
-23 -13 -3 -16 0 -11 9 5 8 4 10 -4 5 -15 -10 32 -96 135 -251 410 -618 1010
-1005 1724 -1114 693 -106 1386 85 1940 533 105 85 313 295 391 396 290 373
463 788 520 1245 17 133 17 425 1 555 -55 442 -202 829 -446 1175 -97 139
-263 328 -279 318 -5 -3 -7 -2 -4 4 3 5 -12 27 -33 48 -22 22 -40 36 -40 31 0
-4 -12 6 -26 23 -14 17 -76 69 -137 115 -100 76 -116 85 -147 81 -27 -3 -31
-2 -17 6 9 6 22 7 27 4 24 -15 7 4 -17 21 -27 17 -28 17 -13 -1 14 -17 13 -18
-3 -12 -10 4 -20 7 -23 7 -2 0 -1 6 1 13 3 6 -4 18 -16 25 -12 8 -18 9 -15 3
4 -5 -2 -9 -13 -8 -13 1 -17 5 -11 12 11 13 -26 39 -42 29 -6 -4 -8 -3 -5 3 8
13 -20 26 -35 16 -7 -3 -8 -1 -4 5 11 18 -264 148 -291 137 -8 -2 -12 -1 -9 4
4 5 -22 19 -56 30 -70 24 -78 25 -78 11z m74 -20 c16 -6 24 -15 20 -24 -3 -8
-1 -17 5 -21 6 -3 11 -1 11 6 0 7 8 6 24 -4 16 -11 27 -12 34 -5 11 11 40 0
42 -17 1 -5 10 -9 21 -8 10 2 19 -1 19 -6 0 -13 -28 -22 -35 -11 -3 5 -12 7
-19 4 -8 -3 -17 -1 -21 5 -3 7 0 8 10 5 11 -5 14 -2 9 9 -5 13 -10 14 -30 5
-14 -7 -23 -17 -20 -24 3 -7 -1 -15 -9 -18 -9 -3 -12 0 -9 8 3 7 -2 13 -11 14
-8 1 -22 3 -30 4 -18 2 -19 10 -4 25 8 8 8 13 0 17 -6 4 -11 2 -11 -4 0 -6 -5
-8 -12 -4 -7 5 -5 11 8 21 19 14 19 15 -1 11 -11 -2 -25 -13 -31 -26 -15 -30
-27 -41 -18 -17 7 18 6 18 -9 7 -9 -8 -21 -11 -26 -7 -7 3 -8 0 -5 -9 3 -9 11
-13 18 -9 8 5 8 3 0 -8 -5 -8 -9 -24 -8 -36 0 -12 -2 -20 -6 -18 -4 2 -6 16
-5 30 2 14 0 25 -4 25 -14 0 -8 35 8 47 11 8 12 12 4 13 -7 0 -13 5 -13 11 0
8 4 8 13 2 17 -13 52 -10 50 5 -4 15 7 15 41 2z m-31 -75 c-3 -9 -8 -14 -10
-11 -3 3 -2 9 2 15 9 16 15 13 8 -4z m-25 -17 c-2 -7 3 -12 11 -10 12 3 12 1
1 -13 -16 -19 -36 -5 -27 19 8 19 18 21 15 4z m48 -14 c1 -9 0 -13 -4 -10 -3
4 -7 14 -8 22 -1 9 0 13 4 10 3 -4 7 -14 8 -22z m-113 10 c-7 -3 -10 -11 -7
-19 3 -7 1 -16 -5 -20 -9 -5 -10 16 -2 43 1 1 7 2 14 1 9 0 9 -2 0 -5z m387
-28 c0 -2 -9 -6 -20 -9 -11 -3 -18 -1 -14 4 5 9 34 13 34 5z m-70 -30 c0 -10
-30 0 -34 11 -4 11 -1 11 14 3 11 -6 20 -12 20 -14z m-295 4 c3 -5 0 -7 -9 -4
-11 4 -13 0 -9 -17 4 -13 2 -20 -4 -16 -5 3 -10 0 -10 -8 0 -8 4 -12 8 -9 5 3
11 -7 15 -21 4 -16 12 -24 20 -21 7 3 18 -2 26 -11 11 -14 10 -15 -10 -9 -81
26 -155 55 -142 55 8 1 21 10 28 21 16 26 31 18 27 -15 -1 -14 2 -25 7 -25 5
0 7 16 4 35 -4 26 -2 37 12 44 22 13 29 13 37 1z m230 0 c3 -6 -1 -7 -9 -4
-18 7 -21 14 -7 14 6 0 13 -4 16 -10z m-145 -24 c-15 -15 -12 -26 4 -20 8 3
17 0 22 -7 5 -8 3 -10 -6 -4 -7 4 -16 2 -21 -6 -7 -11 -9 -11 -9 -1 0 7 -5 10
-11 6 -8 -5 -8 -1 0 13 6 11 8 22 6 25 -3 3 2 5 10 5 11 0 12 -4 5 -11z m245
5 c3 -5 2 -12 -3 -15 -5 -3 -9 1 -9 9 0 17 3 19 12 6z m-326 -18 c-3 -20 2
-26 11 -13 8 13 10 12 10 -2 0 -10 5 -18 11 -18 5 0 7 -5 3 -11 -4 -8 -9 -7
-15 2 -7 12 -9 11 -9 -1 -1 -9 -6 -5 -14 10 -8 14 -12 28 -10 32 7 10 14 10
13 1z m205 -23 c-6 -6 -10 -3 -10 10 0 13 4 16 10 10 7 -7 7 -13 0 -20z m243
-1 c-16 -22 -16 -22 -14 -1 0 11 5 18 9 16 4 -3 8 0 8 7 0 7 3 10 6 6 3 -3 -1
-16 -9 -28z m-163 3 c2 -4 -5 -9 -17 -9 -17 -2 -19 0 -7 7 18 12 18 12 24 2z
m-198 -31 c-10 -11 -25 -17 -33 -14 -11 5 -8 9 13 19 39 17 40 17 20 -5z m94
3 c0 -8 -19 -13 -24 -6 -3 5 1 9 9 9 8 0 15 -2 15 -3z m122 -1 c-6 -2 -9 -10
-6 -15 4 -7 2 -8 -5 -4 -13 9 -5 26 12 25 9 0 8 -2 -1 -6z m158 -7 c0 -2 -7
-7 -16 -10 -8 -3 -12 -2 -9 4 6 10 25 14 25 6z m-116 -22 c3 -8 2 -12 -4 -9
-6 3 -10 10 -10 16 0 14 7 11 14 -7z m143 1 c0 -8 -4 -12 -9 -9 -4 3 -8 9 -8
15 0 5 4 9 8 9 5 0 9 -7 9 -15z m-363 -3 c3 -5 -1 -9 -9 -9 -8 0 -15 4 -15 9
0 4 4 8 9 8 6 0 12 -4 15 -8z m-696 -36 c64 -33 123 -91 154 -154 31 -63 32
-167 1 -234 -29 -63 -92 -129 -151 -159 -46 -22 -50 -28 -56 -67 -3 -24 -3
-198 0 -388 l7 -344 -90 0 -90 0 5 383 5 382 -60 38 c-116 71 -162 147 -163
267 0 140 75 247 209 297 57 21 165 12 229 -21z m702 4 c8 -5 11 -10 5 -10 -5
0 -17 5 -25 10 -8 5 -10 10 -5 10 6 0 17 -5 25 -10z m549 -16 c3 -3 -3 -4 -14
-2 -12 2 -19 -2 -18 -9 2 -8 -4 -10 -14 -6 -11 4 -13 8 -5 11 7 2 10 8 7 12
-6 10 34 4 44 -6z m-475 -14 c25 -10 46 -22 46 -24 0 -5 -91 31 -99 40 -9 8 8
4 53 -16z m41 10 c3 -6 -1 -7 -9 -4 -18 7 -21 14 -7 14 6 0 13 -4 16 -10z
m155 -6 c0 -8 -19 -13 -24 -6 -3 5 1 9 9 9 8 0 15 -2 15 -3z m-75 -64 c3 -6
-1 -7 -9 -4 -18 7 -21 14 -7 14 6 0 13 -4 16 -10z m-1594 -164 c74 -49 100
-154 60 -242 -80 -175 -354 -105 -354 90 0 79 38 137 113 171 50 22 131 13
181 -19z m1264 24 c-3 -5 -13 -6 -22 -3 -12 5 -15 2 -10 -10 3 -9 2 -17 -3
-17 -6 0 -10 6 -10 14 0 8 -8 17 -17 19 -10 3 1 5 25 6 25 1 41 -3 37 -9z
m-75 -10 c13 -8 13 -10 -2 -10 -9 0 -20 5 -23 10 -8 13 5 13 25 0z m18 -26
c13 -2 29 -8 36 -13 16 -13 27 -4 19 15 -3 8 1 14 8 14 7 0 9 -3 5 -7 -3 -4 9
-23 28 -42 34 -35 35 -36 11 -37 -18 -1 -23 3 -20 16 4 22 -20 47 -30 30 -3
-6 -11 -7 -17 -4 -7 4 -8 2 -4 -4 4 -7 2 -12 -5 -12 -7 0 -10 -3 -7 -6 4 -3
16 0 28 6 20 10 21 10 16 -8 -7 -22 14 -35 39 -26 9 4 15 1 15 -7 0 -7 8 -2
17 11 9 14 21 28 25 31 5 3 -3 16 -17 29 -20 19 -28 21 -34 11 -7 -10 -9 -9
-14 3 -3 8 -2 18 3 21 11 7 78 -54 82 -75 2 -8 9 -21 16 -28 15 -16 16 -91 1
-129 -18 -50 -92 -113 -131 -113 -7 0 -18 11 -25 25 -6 14 -7 25 -3 25 5 0 12
-9 15 -20 6 -20 25 -28 25 -11 0 5 8 8 18 7 9 0 16 4 15 11 -2 8 4 10 15 7 14
-5 15 -4 2 5 -11 8 -18 7 -27 -6 -10 -13 -13 -14 -14 -2 0 10 -2 10 -6 2 -2
-7 -9 -13 -15 -13 -6 0 -7 7 -4 16 3 8 2 13 -3 9 -5 -3 -16 2 -25 10 -9 9 -17
11 -21 5 -3 -5 -1 -10 5 -10 6 0 8 -5 5 -10 -5 -8 -11 -8 -20 0 -10 8 -22 7
-47 -6 -22 -12 -28 -19 -18 -22 7 -3 16 0 18 7 2 6 8 11 14 11 6 0 6 -6 -2
-15 -10 -12 -10 -15 0 -15 8 0 11 -3 8 -6 -10 -9 -72 22 -93 47 l-20 24 20
-16 c38 -30 48 -33 41 -11 -5 13 -1 22 11 27 26 12 47 11 56 0 5 -6 7 -3 3 8
-4 14 -1 16 19 13 18 -3 22 -1 18 11 -5 12 -8 12 -15 1 -7 -9 -8 -7 -5 10 3
12 1 20 -4 17 -5 -3 -17 -1 -28 5 -14 7 -22 7 -26 0 -12 -20 -36 9 -25 30 5 9
6 20 3 24 -11 11 -10 46 0 46 6 0 8 3 4 6 -3 3 -16 -1 -29 -10 -12 -9 -17 -16
-10 -16 7 0 10 -5 7 -10 -5 -8 -12 -7 -23 2 -15 12 -16 11 -3 -4 19 -25 -1
-22 -22 3 -11 12 -16 28 -12 40 9 29 65 90 76 83 5 -3 7 -10 3 -15 -3 -5 -10
-7 -15 -4 -5 4 -9 1 -9 -5 0 -7 7 -10 15 -6 12 4 14 0 11 -19 -3 -15 -1 -23 5
-20 5 4 7 11 3 16 -3 6 4 7 20 3 17 -4 26 -2 26 6 0 9 3 10 14 1 10 -9 16 -8
26 4 9 10 9 15 1 15 -6 0 -11 -5 -11 -11 0 -8 -4 -8 -12 -1 -7 5 -24 8 -37 6
-14 -3 -22 -2 -18 2 3 4 2 15 -4 26 -10 18 -9 19 13 7 13 -7 33 -14 46 -15z
m757 -74 c10 -11 16 -20 13 -20 -3 0 -13 9 -23 20 -10 11 -16 20 -13 20 3 0
13 -9 23 -20z m71 -62 l29 -33 -32 29 c-31 28 -38 36 -30 36 2 0 16 -15 33
-32z m-951 -20 c7 -18 11 -36 9 -39 -2 -4 3 -12 10 -18 10 -9 16 -9 21 -1 9
15 -2 43 -15 35 -5 -3 -10 -2 -10 4 0 5 5 13 10 16 6 3 10 12 9 18 0 9 -2 9
-6 0 -2 -7 -9 -13 -15 -13 -6 0 -6 6 2 15 19 23 33 18 28 -10 -6 -27 25 -65
37 -46 4 8 12 8 26 1 18 -10 18 -12 3 -27 -9 -9 -19 -12 -22 -7 -12 16 -35 16
-29 0 3 -8 -1 -17 -11 -21 -9 -3 -18 -1 -20 4 -2 6 -8 9 -13 6 -5 -4 -6 2 -2
11 5 13 3 15 -7 9 -9 -5 -11 -4 -6 3 4 7 2 12 -4 12 -6 0 -8 11 -6 24 3 15 -1
27 -10 30 -16 6 -19 26 -4 26 6 0 17 -15 25 -32z m-28 -30 c-3 -8 -6 -5 -6 6
-1 11 2 17 5 13 3 -3 4 -12 1 -19z m158 -98 c4 -6 11 -8 16 -5 5 3 6 -1 3 -9
-3 -8 -12 -12 -20 -9 -8 3 -12 9 -9 13 3 5 -1 11 -7 13 -9 4 -10 6 -1 6 6 1
15 -4 18 -9z m28 -47 c-7 -2 -19 -2 -25 0 -7 3 -2 5 12 5 14 0 19 -2 13 -5z
m-1046 -82 c38 -32 101 -92 141 -134 61 -64 72 -80 72 -110 0 -40 -11 -47 -73
-47 -39 0 -46 6 -191 150 -130 129 -149 152 -140 167 6 10 24 21 40 24 68 15
82 11 151 -50z m-1154 -527 c76 -38 107 -88 107 -169 0 -62 -14 -97 -57 -137
-71 -67 -194 -65 -270 5 -55 50 -65 171 -20 239 48 70 164 100 240 62z m232
-194 c3 6 11 8 16 4 5 -3 6 -10 3 -16 -4 -7 -2 -8 5 -4 8 5 86 -66 217 -196
167 -166 204 -208 204 -230 l0 -28 -83 0 -83 0 -162 163 -162 163 0 61 c0 75
7 98 25 83 9 -8 15 -8 20 0z m2335 -203 c0 -1 -24 -25 -52 -52 l-53 -50 50 53
c46 48 55 57 55 49z m57 -145 c-71 -71 -107 -95 -107 -69 0 5 6 7 14 4 8 -3
20 1 26 9 12 13 6 19 -15 14 -5 -1 -7 2 -3 5 4 4 3 17 -3 29 -10 20 -10 20 5
2 13 -16 19 -17 28 -8 9 9 9 12 -2 12 -9 0 -7 5 5 14 13 9 26 11 36 6 12 -7
25 0 49 25 19 19 36 35 39 35 3 0 -30 -35 -72 -78z m-975 16 c110 -51 189
-150 206 -260 25 -158 -48 -302 -186 -370 -61 -30 -75 -33 -157 -33 -77 1 -98
5 -146 28 -66 32 -142 109 -170 172 -88 198 0 404 204 477 72 26 174 20 249
-14z m808 19 c0 -2 -10 -12 -22 -23 l-23 -19 19 23 c18 21 26 27 26 19z
m-2537 -47 c69 -26 131 -79 168 -145 l29 -52 405 4 405 3 0 -90 0 -90 -404 0
-403 0 -18 -47 c-28 -72 -115 -154 -189 -177 -150 -47 -317 26 -387 170 -32
67 -34 188 -2 256 38 82 117 156 193 179 49 15 148 9 203 -11z m3402 -11 c68
-25 147 -99 178 -166 30 -67 30 -178 -2 -250 -29 -65 -110 -143 -173 -167 -67
-26 -186 -19 -252 14 -60 30 -128 104 -152 166 l-19 46 -180 -3 c-99 -2 -287
-3 -417 -1 l-238 2 0 78 c0 42 4 83 9 90 7 12 80 13 418 7 l409 -8 27 45 c32
56 106 124 160 149 58 26 160 25 232 -2z m-922 -1 c-4 -7 -8 -17 -8 -23 0 -5
-7 -10 -15 -10 -8 -1 -14 -7 -12 -14 1 -7 -2 -9 -9 -6 -7 5 -1 17 17 36 29 31
40 37 27 17z m104 -42 c0 -8 -6 -12 -15 -9 -11 5 -11 7 0 14 7 5 13 9 14 9 0
0 1 -6 1 -14z m-152 -25 c3 -5 2 -12 -3 -15 -5 -3 -9 1 -9 9 0 17 3 19 12 6z
m175 -5 c0 -2 -8 -10 -17 -17 -16 -13 -17 -12 -4 4 13 16 21 21 21 13z m-97
-33 c-13 -2 -35 -2 -50 0 -16 2 -5 4 22 4 28 0 40 -2 28 -4z m98 -379 c21 -20
35 -42 32 -47 -3 -6 -2 -7 4 -4 5 3 52 -37 104 -90 52 -53 88 -92 80 -88 -10
6 -12 4 -7 -4 4 -6 11 -9 15 -7 4 3 25 -12 46 -34 l38 -39 -6 -72 c-3 -40 -10
-76 -15 -81 -10 -10 -75 39 -67 52 3 4 -3 14 -13 21 -16 13 -16 12 -3 -6 8
-11 -42 36 -112 104 -69 69 -123 129 -120 134 4 6 1 7 -6 3 -18 -12 -56 25
-39 37 9 6 8 7 -4 4 -19 -6 -42 15 -30 28 4 5 2 5 -4 2 -17 -10 -84 68 -84 97
0 29 21 36 99 31 46 -3 59 -8 92 -41z m-1843 9 c2 -16 -13 -39 -53 -80 -32
-32 -62 -56 -69 -55 -6 2 -8 0 -3 -4 10 -10 -33 -55 -46 -47 -6 3 -7 2 -4 -4
7 -11 -244 -262 -282 -283 -21 -11 -26 -10 -38 6 -14 20 -18 111 -4 132 4 8
86 92 182 188 l174 175 70 -3 c64 -3 70 -5 73 -25z m-654 -360 c74 -51 106
-156 72 -236 -7 -18 -29 -47 -49 -64 -102 -90 -252 -59 -308 62 -37 80 -14
176 55 231 46 38 69 44 135 39 39 -3 67 -12 95 -32z m1567 -525 l-4 -387 56
-27 c205 -97 244 -364 75 -521 -74 -69 -234 -91 -330 -44 -107 52 -170 150
-176 274 -4 71 -1 84 27 142 33 67 92 127 147 151 25 10 33 21 39 51 3 20 3
194 -1 386 -6 293 -5 350 7 358 8 5 48 8 89 7 l75 -3 -4 -387z m1405 206 c18
-14 18 -14 -6 -3 -31 14 -36 19 -24 19 6 0 19 -7 30 -16z m-1648 -196 c7 -7
12 -28 12 -48 0 -34 -11 -47 -139 -173 -77 -75 -151 -139 -165 -143 -14 -3
-43 -1 -63 4 l-38 11 47 -4 c52 -5 81 2 72 16 -3 5 2 9 10 9 21 0 9 27 -14 33
-14 4 -18 11 -15 28 3 13 -1 27 -8 31 -9 6 -8 8 2 8 11 0 9 4 -5 15 -13 11
-14 14 -4 13 8 -2 18 -7 21 -11 3 -4 16 -3 30 3 18 8 19 9 4 7 -11 -1 -25 2
-31 8 -14 12 131 165 180 189 37 19 87 21 104 4z m-1888 -58 c6 -11 8 -20 6
-20 -3 0 -10 9 -16 20 -6 11 -8 20 -6 20 3 0 10 -9 16 -20z m1565 -199 c3 -5
2 -12 -3 -15 -5 -3 -9 1 -9 9 0 17 3 19 12 6z m10 -31 c-3 -5 -1 -10 4 -10 6
0 11 -5 11 -10 0 -7 -7 -7 -21 1 -17 9 -19 13 -8 20 18 11 22 11 14 -1z m-8
-37 c-2 -2 -14 -6 -27 -8 -18 -3 -20 -2 -10 10 6 8 18 11 26 8 8 -3 13 -7 11
-10z m-99 -87 c31 -16 74 -61 91 -93 14 -28 14 -123 0 -160 -15 -40 -48 -73
-94 -94 -93 -43 -205 -5 -252 86 -20 38 -20 132 0 170 19 37 64 81 97 94 37
15 127 13 158 -3z m1347 -104 c-3 -3 -11 0 -18 7 -9 10 -8 11 6 5 10 -3 15 -9
12 -12z m-20 -12 c3 -5 1 -10 -4 -10 -6 0 -11 5 -11 10 0 6 2 10 4 10 3 0 8
-4 11 -10z m-55 -16 c0 -8 -19 -13 -24 -6 -3 5 1 9 9 9 8 0 15 -2 15 -3z m144
-19 c16 -25 16 -25 -2 -14 -10 6 -19 18 -19 25 0 19 2 18 21 -11z m-33 -58
c-9 -9 -11 -8 -5 6 4 10 2 17 -4 15 -5 -2 -10 0 -11 5 -4 26 1 29 15 8 13 -17
14 -25 5 -34z m39 9 c0 -2 -7 -9 -15 -16 -13 -11 -14 -10 -9 4 5 14 24 23 24
12z m15 -46 c-4 -12 -20 -37 -37 -56 -24 -27 -33 -32 -44 -23 -8 7 -18 9 -21
5 -4 -4 -1 -11 6 -15 15 -9 6 -14 -54 -25 -23 -5 -33 -2 -43 14 -7 12 -8 20
-2 20 5 0 10 -4 10 -10 0 -5 5 -10 10 -10 7 0 6 10 -2 28 -19 38 -16 67 5 66
9 -1 17 3 17 9 0 6 6 3 13 -8 14 -18 37 -14 37 6 0 6 -5 7 -12 3 -7 -5 -8 -3
-3 5 5 9 10 10 18 2 7 -7 7 -15 0 -23 -14 -20 -10 -41 10 -44 11 -1 17 4 17
19 0 20 0 20 -16 1 -14 -18 -15 -18 -4 4 9 19 14 21 26 11 12 -9 13 -9 9 3 -4
9 6 20 27 30 38 18 42 17 33 -12z m-310 -50 c10 -11 16 -20 13 -20 -3 0 -13 9
-23 20 -10 11 -16 20 -13 20 3 0 13 -9 23 -20z m90 -38 c-3 -3 -11 0 -18 7 -9
10 -8 11 6 5 10 -3 15 -9 12 -12z m-30 -10 c-3 -3 -11 0 -18 7 -9 10 -8 11 6
5 10 -3 15 -9 12 -12z"/>
<path d="M5380 7875 c-7 -9 -8 -15 -2 -15 5 0 12 7 16 15 3 8 4 15 2 15 -2 0
-9 -7 -16 -15z"/>
<path d="M5480 7849 c0 -10 23 -17 38 -12 22 8 13 23 -13 21 -14 -1 -25 -5
-25 -9z"/>
<path d="M5330 7680 c0 -5 5 -10 10 -10 6 0 10 5 10 10 0 6 -4 10 -10 10 -5 0
-10 -4 -10 -10z"/>
<path d="M4599 7445 c-38 -21 -62 -64 -62 -111 0 -50 22 -87 66 -114 103 -63
231 50 183 163 -27 67 -121 98 -187 62z"/>
<path d="M5289 7288 c-8 -27 -4 -34 21 -33 23 0 26 2 16 18 -9 15 -11 15 -14
2 -2 -8 -8 -13 -13 -9 -5 3 -7 10 -4 15 4 5 4 9 1 9 -3 0 -6 -1 -7 -2z"/>
<path d="M5475 7282 c-6 -4 -10 -14 -10 -22 1 -8 -7 -24 -17 -36 -15 -17 -15
-21 -4 -21 8 0 12 5 9 10 -4 6 1 8 11 4 14 -5 17 -3 13 8 -4 8 1 19 11 24 12
7 13 10 3 11 -7 0 -11 6 -7 15 6 17 5 18 -9 7z"/>
<path d="M5160 7260 c0 -5 5 -10 11 -10 5 0 7 5 4 10 -3 6 -8 10 -11 10 -2 0
-4 -4 -4 -10z"/>
<path d="M5250 7236 c0 -8 4 -17 8 -20 4 -2 8 4 8 15 0 10 -4 19 -8 19 -4 0
-8 -6 -8 -14z"/>
<path d="M5387 7241 c13 -15 6 -44 -8 -35 -5 3 -7 9 -5 13 3 4 0 8 -7 8 -7 0
-13 -12 -12 -28 0 -15 2 -25 4 -23 2 2 15 -3 28 -11 13 -9 28 -13 33 -10 15 9
12 -5 -5 -21 -8 -9 -15 -12 -15 -8 0 3 -6 1 -14 -5 -11 -9 -15 -8 -20 5 -3 9
-4 19 -1 23 2 4 -2 8 -10 8 -12 0 -12 -4 0 -27 8 -15 11 -31 7 -35 -4 -5 -2
-5 5 -1 6 3 14 2 18 -4 3 -5 11 -10 18 -10 6 0 2 7 -9 15 -18 13 -17 14 14 12
21 -1 34 -8 38 -20 3 -9 9 -15 14 -12 5 3 2 14 -7 25 -9 10 -20 17 -25 14 -4
-3 -5 2 -2 10 3 8 14 13 25 11 11 -2 17 0 14 6 -4 5 -10 7 -15 4 -7 -4 -34 51
-32 66 1 4 -9 15 -21 25 -12 10 -17 12 -10 5z m8 -45 c14 6 29 -23 16 -30 -8
-5 -51 30 -51 41 0 4 5 2 11 -4 6 -6 17 -9 24 -7z"/>
<path d="M5283 7224 c1 -13 7 -21 17 -19 8 1 20 -4 25 -12 9 -12 11 -11 11 5
0 14 -6 19 -18 17 -10 -2 -22 4 -27 13 -9 15 -10 14 -8 -4z"/>
<path d="M5253 7185 c0 -8 4 -12 9 -9 4 3 8 9 8 15 0 5 -4 9 -8 9 -5 0 -9 -7
-9 -15z"/>
<path d="M5725 5870 c-3 -5 -1 -10 5 -10 7 0 5 -7 -4 -16 -23 -22 -20 -30 3
-10 11 10 17 24 14 32 -6 17 -10 17 -18 4z"/>
<path d="M4607 5696 c-68 -25 -97 -66 -97 -139 0 -105 118 -180 208 -133 54
28 75 62 79 124 3 44 0 64 -16 89 -35 56 -111 81 -174 59z"/>
<path d="M2905 5681 c-56 -23 -96 -98 -81 -154 14 -57 81 -107 141 -107 94 0
157 122 106 206 -31 51 -110 77 -166 55z"/>
<path d="M6282 5660 c-72 -44 -81 -149 -18 -207 31 -29 43 -33 91 -33 49 0 60
4 91 33 31 28 37 41 42 85 3 38 0 58 -12 77 -41 63 -131 83 -194 45z"/>
<path d="M5720 5286 c0 -2 8 -10 18 -17 15 -13 16 -12 3 4 -13 16 -21 21 -21
13z"/>
<path d="M5723 5237 c0 -8 6 -14 14 -14 9 0 10 4 2 14 -6 7 -12 13 -14 13 -1
0 -2 -6 -2 -13z"/>
<path d="M5766 5235 c4 -8 11 -15 16 -15 6 0 5 6 -2 15 -7 8 -14 15 -16 15 -2
0 -1 -7 2 -15z"/>
<path d="M5764 5193 c1 -7 6 -16 11 -20 4 -4 5 -3 2 3 -4 7 2 14 13 17 14 3
28 -4 45 -25 14 -17 28 -28 30 -26 3 2 -9 18 -26 34 -31 29 -78 41 -75 17z"/>
<path d="M5660 5177 c0 -1 35 -36 78 -77 l77 -75 -75 78 c-69 71 -80 82 -80
74z"/>
<path d="M5710 5170 c-12 -7 -10 -9 7 -7 12 0 19 5 17 9 -6 10 -6 10 -24 -2z"/>
<path d="M5790 5170 c0 -5 5 -10 11 -10 5 0 7 5 4 10 -3 6 -8 10 -11 10 -2 0
-4 -4 -4 -10z"/>
<path d="M5832 5138 c7 -13 11 -27 10 -31 -1 -5 2 -6 8 -2 6 4 4 15 -6 31 -20
30 -29 32 -12 2z"/>
<path d="M5800 5138 c0 -9 7 -19 16 -22 15 -6 15 -4 3 11 -7 10 -15 20 -16 22
-2 2 -3 -3 -3 -11z"/>
<path d="M5835 5000 c10 -11 20 -20 23 -20 3 0 -3 9 -13 20 -10 11 -20 20 -23
20 -3 0 3 -9 13 -20z"/>
<path d="M4615 3900 c-43 -17 -68 -58 -73 -115 -4 -53 -3 -56 36 -95 34 -34
46 -40 81 -40 83 0 141 56 141 136 0 87 -100 149 -185 114z"/>
<path d="M4420 4486 c0 -9 39 -13 51 -5 10 6 4 9 -18 9 -18 0 -33 -2 -33 -4z"/>
<path d="M4430 4466 c0 -2 8 -10 18 -17 15 -13 16 -12 3 4 -13 16 -21 21 -21
13z"/>
<path d="M4294 4352 c3 -5 0 -13 -6 -15 -9 -4 -10 -6 -1 -6 17 -1 25 16 12 25
-7 4 -9 3 -5 -4z"/>
<path d="M4309 4323 c-1 -4 -1 -11 0 -15 0 -5 -3 -8 -9 -8 -5 0 -10 4 -10 8 0
5 -6 9 -14 9 -22 0 -13 -51 10 -56 15 -3 16 -1 6 12 -11 13 -10 15 10 10 13
-3 20 -2 16 2 -4 5 -3 14 3 21 7 8 7 14 -1 19 -5 3 -11 3 -11 -2z"/>
<path d="M4336 4293 c-6 -14 -5 -15 5 -6 7 7 10 15 7 18 -3 3 -9 -2 -12 -12z"/>
<path d="M4220 4260 c-11 -7 -11 -10 -2 -10 8 0 10 -5 5 -12 -12 -21 -12 -35
3 -35 7 0 15 6 18 13 3 9 -1 11 -12 8 -13 -5 -14 -4 -3 4 7 5 10 16 6 23 -4 8
2 3 13 -11 15 -18 17 -27 9 -33 -8 -6 -7 -7 3 -4 21 5 21 46 -1 57 -21 12 -20
12 -39 0z"/>
<path d="M4306 4253 c-6 -14 -5 -15 5 -6 7 7 10 15 7 18 -3 3 -9 -2 -12 -12z"/>
<path d="M4285 4210 c-3 -11 -13 -20 -21 -20 -8 0 -14 -5 -14 -10 0 -14 30 3
52 29 14 17 15 21 4 21 -8 0 -18 -9 -21 -20z"/>
<path d="M5465 3803 c-14 -21 -25 -42 -25 -47 0 -14 41 26 56 56 21 41 -1 34
-31 -9z"/>
<path d="M5335 3800 c1 -11 7 -26 15 -33 10 -10 11 -9 5 2 -6 10 -4 12 4 7 7
-5 10 -14 7 -22 -3 -7 0 -16 6 -20 7 -5 8 -2 3 6 -6 10 -4 12 9 7 10 -4 15 -3
11 3 -3 6 -1 10 5 10 6 0 1 14 -11 31 -16 23 -24 28 -30 17 -7 -10 -9 -10 -9
0 0 6 -4 12 -8 12 -5 0 -8 -9 -7 -20z m53 -35 c-3 -3 -9 2 -12 12 -6 14 -5 15
5 6 7 -7 10 -15 7 -18z"/>
<path d="M5286 7913 c-6 -14 -5 -15 5 -6 7 7 10 15 7 18 -3 3 -9 -2 -12 -12z"/>
<path d="M5226 7872 c-2 -4 4 -8 14 -8 10 0 16 4 14 8 -3 4 -9 8 -14 8 -5 0
-11 -4 -14 -8z"/>
<path d="M5261 7842 c-7 -14 -5 -21 12 -32 20 -12 21 -11 9 2 -7 9 -10 23 -6
32 8 22 -3 20 -15 -2z"/>
<path d="M5243 7795 c-10 -10 -9 -16 1 -24 11 -9 14 -6 14 14 0 14 -1 25 -2
25 0 -1 -6 -7 -13 -15z"/>
<path d="M2625 4549 c-4 -5 0 -18 9 -28 9 -10 16 -24 16 -32 1 -10 3 -10 10 3
7 11 6 25 -2 42 -12 28 -23 33 -33 15z"/>
<path d="M2597 4523 c5 -12 3 -14 -7 -8 -8 5 -11 4 -6 -3 7 -12 36 -5 36 8 0
4 -7 10 -14 13 -11 4 -13 1 -9 -10z"/>
<path d="M2505 4509 c-4 -6 -5 -12 -2 -15 2 -3 7 2 10 11 7 17 1 20 -8 4z"/>
</g>
</svg>
